This is from a SD broadcast.  Enjoy and please share.							

													

													

													

													

******************************************************************************************************

******************************************************************************************************	

													

													

													

							

NCAA_WOMEN_OSU_VS_Georgia_Tech_First_Half_480p_20110321_TTL.avi
Format                           : AVI
Format/Info                      : Audio Video Interleave
File size                        : 901 MiB
Duration                         : 1h 23mn
Overall bit rate                 : 1 510 Kbps
Movie name                       : NCAA_WOMEN_OSU_VS_Georgia_Tech_First_Half_480p_20110321_TTL.mpg
Director                         : created.with.SUPER(C).v2010.bld.37
Writing application              : SUPER(C)   

Video
ID                               : 0
Format                           : MPEG-4 Visual
Format profile                   : Simple@L3
Format settings, BVOP            : No
Format settings, QPel            : No
Format settings, GMC             : No warppoints
Format settings, Matrix          : Default (H.263)
Codec ID                         : XVID
Codec ID/Hint                    : XviD
Duration                         : 41mn 43s
Bit rate                         : 2 880 Kbps
Width                            : 624 pixels
Height                           : 352 pixels
Display aspect ratio             : 16:9
Frame rate                       : 23.976 fps
Resolution                       : 8 bits
Colorimetry                      : 4:2:0
Scan type                        : Progressive
Bits/(Pixel*Frame)               : 0.547
Stream size                      : 860 MiB (95%)
Writing library                  : XviD 1.1.2 (UTC 2006-11-01)

Audio
ID                               : 1
Format                           : MPEG Audio
Format version                   : Version 2
Format profile                   : Layer 3
Mode                             : Joint stereo
Format_Settings_ModeExtension    : MS Stereo
Codec ID                         : 55
Codec ID/Hint                    : MP3
Duration                         : 1h 23mn
Bit rate mode                    : Constant
Bit rate                         : 128 Kbps
Channel(s)                       : 2 channels
Sampling rate                    : 22.05 KHz
Stream size                      : 38.2 MiB (4%)
Alignment                        : Aligned on interleaves
Interleave, duration             : 26 ms (0.63 video frame)
Interleave, preload duration     : 26 ms
Writing library                  : LAME3.98





